<svg width="504" height="167" viewBox="0 0 504 167" fill="none" xmlns="http://www.w3.org/2000/svg">
<g filter="url(#filter0_dd_5_9)">
<path d="M36 56C36 44.9543 44.9543 36 56 36H441.42C452.466 36 461.42 44.9543 461.42 56V105C461.42 116.046 452.466 125 441.42 125H56C44.9543 125 36 116.046 36 105V56Z" fill="#930305"/>
</g>
<path d="M170.78 89.1392V61.1314H179.218V89.1392H170.78ZM204.296 89.1392L194.413 75.6236C193.632 74.5559 192.994 73.5923 192.499 72.733H192.421C192.499 74.1132 192.538 75.6627 192.538 77.3814V89.1392H184.726V61.1314H192.694L202.167 73.983C202.284 74.1522 202.427 74.3541 202.597 74.5884C202.766 74.8228 202.935 75.0637 203.104 75.3111C203.274 75.5585 203.43 75.7994 203.573 76.0338C203.729 76.2681 203.847 76.4765 203.925 76.6588H204.003C203.925 76.0858 203.886 75.0963 203.886 73.69V61.1314H211.698V89.1392H204.296ZM217.226 89.1392V61.1314H225.663V89.1392H217.226ZM252.011 88.3775C249.693 89.2108 247.017 89.6275 243.983 89.6275C241.002 89.6275 238.43 89.0611 236.269 87.9283C234.107 86.7825 232.453 85.1614 231.308 83.065C230.175 80.9556 229.608 78.5272 229.608 75.7798C229.608 72.8241 230.246 70.1939 231.522 67.8892C232.799 65.5845 234.602 63.8072 236.933 62.5572C239.263 61.2942 241.946 60.6627 244.979 60.6627C247.401 60.6627 249.745 60.9556 252.011 61.5416V69.3345C251.229 68.8658 250.299 68.5012 249.218 68.2408C248.137 67.9804 247.043 67.8502 245.937 67.8502C243.645 67.8502 241.835 68.5077 240.507 69.8228C239.192 71.1379 238.534 72.9218 238.534 75.1744C238.534 77.414 239.192 79.1848 240.507 80.4869C241.835 81.7759 243.606 82.4205 245.819 82.4205C247.864 82.4205 249.927 81.8996 252.011 80.858V88.3775ZM256.366 89.1392V61.1314H264.804V89.1392H256.366ZM287.87 89.1392L286.64 83.983H278.28L276.952 89.1392H267.831L277.479 61.1314H287.948L297.03 89.1392H287.87ZM282.558 67.2252H282.362C282.336 67.5377 282.245 68.052 282.089 68.7681C281.933 69.4843 281.145 72.5572 279.726 77.9869H285.077L283.124 70.3697C282.851 69.2499 282.662 68.2017 282.558 67.2252ZM314.843 89.1392L312.753 83.1041C312.349 81.9192 311.822 80.9882 311.171 80.3111C310.533 79.634 309.836 79.2955 309.081 79.2955H308.749V89.1392H300.312V61.1314H311.522C315.442 61.1314 318.332 61.7759 320.194 63.065C322.069 64.341 323.007 66.2616 323.007 68.8267C323.007 70.7538 322.46 72.3684 321.366 73.6705C320.285 74.9726 318.671 75.9166 316.522 76.5025V76.5806C317.707 76.9452 318.69 77.5377 319.472 78.358C320.266 79.1783 320.976 80.3957 321.601 82.0103L324.354 89.1392H314.843ZM314.042 70.0181C314.042 69.0806 313.756 68.3384 313.183 67.7916C312.61 67.2447 311.711 66.9713 310.487 66.9713H308.749V73.3775H310.272C311.405 73.3775 312.317 73.0585 313.007 72.4205C313.697 71.7825 314.042 70.9817 314.042 70.0181Z" fill="#EBE3E3"/>
<defs>
<filter id="filter0_dd_5_9" x="0" y="0" width="503.42" height="167" filterUnits="userSpaceOnUse" color-interpolation-filters="sRGB">
<feFlood flood-opacity="0" result="BackgroundImageFix"/>
<feColorMatrix in="SourceAlpha" type="matrix" values="0 0 0 0 0 0 0 0 0 0 0 0 0 0 0 0 0 0 127 0" result="hardAlpha"/>
<feOffset dx="12" dy="12"/>
<feGaussianBlur stdDeviation="15"/>
<feComposite in2="hardAlpha" operator="out"/>
<feColorMatrix type="matrix" values="0 0 0 0 0 0 0 0 0 0 0 0 0 0 0 0 0 0 1 0"/>
<feBlend mode="normal" in2="BackgroundImageFix" result="effect1_dropShadow_5_9"/>
<feColorMatrix in="SourceAlpha" type="matrix" values="0 0 0 0 0 0 0 0 0 0 0 0 0 0 0 0 0 0 127 0" result="hardAlpha"/>
<feOffset dx="-12" dy="-12"/>
<feGaussianBlur stdDeviation="12"/>
<feComposite in2="hardAlpha" operator="out"/>
<feColorMatrix type="matrix" values="0 0 0 0 1 0 0 0 0 1 0 0 0 0 1 0 0 0 0.3 0"/>
<feBlend mode="normal" in2="effect1_dropShadow_5_9" result="effect2_dropShadow_5_9"/>
<feBlend mode="normal" in="SourceGraphic" in2="effect2_dropShadow_5_9" result="shape"/>
</filter>
</defs>
</svg>
