<svg width="426" height="89" viewBox="0 0 426 89" fill="none" xmlns="http://www.w3.org/2000/svg">
<g filter="url(#filter0_ii_5_10)">
<rect width="425.42" height="89" rx="20" fill="#930305"/>
</g>
<path d="M152.487 53.6456V28.4385H160.081V53.6456H152.487ZM182.651 53.6456L173.756 41.4815C173.053 40.5206 172.479 39.6534 172.034 38.8799H171.964C172.034 40.1221 172.069 41.5167 172.069 43.0635V53.6456H165.038V28.4385H172.21L180.735 40.0049C180.84 40.1573 180.969 40.3389 181.122 40.5499C181.274 40.7608 181.426 40.9776 181.579 41.2003C181.731 41.4229 181.872 41.6397 182.001 41.8506C182.141 42.0616 182.247 42.2491 182.317 42.4131H182.387C182.317 41.8975 182.282 41.0069 182.282 39.7413V28.4385H189.313V53.6456H182.651ZM194.288 53.6456V28.4385H201.881V53.6456H194.288ZM225.594 52.96C223.508 53.71 221.1 54.085 218.37 54.085C215.686 54.085 213.372 53.5753 211.426 52.5557C209.481 51.5245 207.993 50.0655 206.962 48.1788C205.942 46.2803 205.432 44.0948 205.432 41.6221C205.432 38.962 206.006 36.5948 207.155 34.5206C208.303 32.4464 209.926 30.8467 212.024 29.7217C214.122 28.585 216.536 28.0167 219.266 28.0167C221.446 28.0167 223.555 28.2803 225.594 28.8077V35.8214C224.891 35.3995 224.053 35.0714 223.081 34.837C222.108 34.6026 221.124 34.4854 220.128 34.4854C218.065 34.4854 216.436 35.0772 215.241 36.2608C214.057 37.4444 213.465 39.0499 213.465 41.0772C213.465 43.0928 214.057 44.6866 215.241 45.8585C216.436 47.0186 218.03 47.5987 220.022 47.5987C221.862 47.5987 223.719 47.1299 225.594 46.1924V52.96ZM229.514 53.6456V28.4385H237.108V53.6456H229.514ZM257.868 53.6456L256.76 49.0049H249.237L248.042 53.6456H239.833L248.516 28.4385H257.938L266.112 53.6456H257.868ZM253.087 33.9229H252.911C252.887 34.2042 252.805 34.6671 252.665 35.3116C252.524 35.9561 251.815 38.7217 250.538 43.6085H255.354L253.596 36.753C253.35 35.7452 253.18 34.8018 253.087 33.9229ZM282.143 53.6456L280.262 48.2139C279.899 47.1475 279.424 46.3096 278.839 45.7003C278.264 45.0909 277.637 44.7862 276.958 44.7862H276.659V53.6456H269.065V28.4385H279.155C282.682 28.4385 285.284 29.0186 286.96 30.1788C288.647 31.3272 289.491 33.0557 289.491 35.3643C289.491 37.0987 288.999 38.5518 288.014 39.7237C287.042 40.8956 285.589 41.7452 283.655 42.2725V42.3428C284.721 42.671 285.606 43.2042 286.309 43.9424C287.024 44.6807 287.663 45.7764 288.225 47.2296L290.704 53.6456H282.143ZM281.423 36.4366C281.423 35.5928 281.165 34.9249 280.649 34.4327C280.133 33.9405 279.325 33.6944 278.223 33.6944H276.659V39.46H278.03C279.049 39.46 279.87 39.1729 280.491 38.5987C281.112 38.0245 281.423 37.3038 281.423 36.4366Z" fill="#EBE3E3"/>
<defs>
<filter id="filter0_ii_5_10" x="-12" y="-12" width="449.42" height="113" filterUnits="userSpaceOnUse" color-interpolation-filters="sRGB">
<feFlood flood-opacity="0" result="BackgroundImageFix"/>
<feBlend mode="normal" in="SourceGraphic" in2="BackgroundImageFix" result="shape"/>
<feColorMatrix in="SourceAlpha" type="matrix" values="0 0 0 0 0 0 0 0 0 0 0 0 0 0 0 0 0 0 127 0" result="hardAlpha"/>
<feOffset dx="12" dy="12"/>
<feGaussianBlur stdDeviation="15"/>
<feComposite in2="hardAlpha" operator="arithmetic" k2="-1" k3="1"/>
<feColorMatrix type="matrix" values="0 0 0 0 0 0 0 0 0 0 0 0 0 0 0 0 0 0 1 0"/>
<feBlend mode="normal" in2="shape" result="effect1_innerShadow_5_10"/>
<feColorMatrix in="SourceAlpha" type="matrix" values="0 0 0 0 0 0 0 0 0 0 0 0 0 0 0 0 0 0 127 0" result="hardAlpha"/>
<feOffset dx="-12" dy="-12"/>
<feGaussianBlur stdDeviation="12"/>
<feComposite in2="hardAlpha" operator="arithmetic" k2="-1" k3="1"/>
<feColorMatrix type="matrix" values="0 0 0 0 1 0 0 0 0 1 0 0 0 0 1 0 0 0 0.3 0"/>
<feBlend mode="normal" in2="effect1_innerShadow_5_10" result="effect2_innerShadow_5_10"/>
</filter>
</defs>
</svg>
